<?xml version="1.0" encoding="iso-8859-1"?>
<!-- Generator: Adobe Illustrator 19.0.0, SVG Export Plug-In . SVG Version: 6.00 Build 0)  -->
<svg version="1.1" id="Layer_1" xmlns="http://www.w3.org/2000/svg" xmlns:xlink="http://www.w3.org/1999/xlink" x="0px" y="0px"
	 viewBox="0 0 101.989 101.989" style="enable-background:new 0 0 101.989 101.989;" xml:space="preserve">
<g>
	<g>
		<g>
			<path d="M100.778,38.347c-1.267-9.24-7.104-18.712-13.445-25.46C81.222,6.384,72.107,1.003,62.922,1.409
				c-0.076-0.087-0.165-0.167-0.278-0.231C60.137-0.231,56.164,0.6,52.59,2.432c-0.042-0.063-0.078-0.13-0.141-0.178
				c-4.641-3.559-13.033-0.979-18.206,0.159C30.455,3.247,23.27,5.075,22.394,9.517c-0.698,0.653-1.368,1.344-2.036,2.04
				c-0.214,0.186-0.405,0.382-0.573,0.59c-0.629,0.643-1.271,1.272-1.964,1.845c-3.119,2.58-6.66,5.204-8.914,8.651
				c-1.832,2.801-2.929,6.655-4.029,9.775c-1.89,5.363-3.183,10.916-4.167,16.526c-1.681,9.581-0.339,18.578,3.583,27.444
				c3.23,7.303,8.768,12.64,15.36,16.557c0.122,0.146,0.242,0.294,0.386,0.426c0.088,0.081,0.208,0.034,0.252-0.051
				c1.747,1.004,3.559,1.915,5.424,2.735c8.858,3.893,20.779,5.636,30.417,5.485c9.539-0.149,20.592-4.782,27.922-10.801
				c7.457-6.123,13.344-16.148,16.11-25.344C102.936,56.182,102.048,47.612,100.778,38.347z M55.032,4.47
				C54.9,4.533,57.99,3.078,59.547,2.721c-0.096,0.353-0.097,0.741-0.001,1.093c-0.78,0.869-1.827,1.964-1.928,2.106
				c-2.8,3.97-6.784,9.067-8.218,13.775c0.087-0.976-0.233-1.974-0.492-3.04c-0.536-2.206-1.111-4.415-1.914-6.54
				C49.299,7.832,52.134,5.851,55.032,4.47z M28.176,8.303c2.573-1.481,5.009-2.179,7.895-2.803c2.52-0.544,5.064-1.042,7.622-1.363
				c2.218-0.278,4.512-0.147,6.725-0.439c-1.81,1.197-3.387,2.614-4.427,4.055c-0.728-1.407-1.768-2.67-3.467-2.521
				c-2.74,0.24-3.864,3.371-3.785,5.744c-2.615-1.271-6.022-1.729-8.183-1.968C29.58,8.9,28.219,8.936,26.775,9.136
				C27.227,8.868,27.686,8.585,28.176,8.303z M27.114,11.804c3.624-0.255,8.557,0.489,12.205,2.287
				c1.022,3.449,2.91,6.872,1.883,10.544c-0.108,0.385,0.339,0.749,0.689,0.529c3.125-1.959,1.691-6.617,0.269-10.074
				c0.097-0.146,0.143-0.323,0.093-0.496c-0.217-0.747-0.619-1.387-1.142-1.945c-0.011-0.027-0.025-0.058-0.037-0.085
				c-0.537-1.257-0.79-4.227,0.768-4.996c1.044-0.515,1.535,0.648,1.855,1.274c0.575,1.125,0.791,2.796,1.013,4.01
				c0.578,3.168,0.738,5.98,2.847,8.504c0.369,0.442,1.05,0.244,1.325-0.171c0.207-0.311,0.333-0.623,0.417-0.935
				c0.017,0.868,0.901,1.507,1.778,1.31c3.832-0.861,10.372-4.345,13.427,0.101c-1.845,0.5-4.453,0.296-6.158,0.904
				c-1.983,0.708-3.819,1.862-5.694,2.807c-1.068,0.539-0.921,2.543,0.356,2.724c0.941,0.133,7.787,0.984,6.699,2.799
				c-0.204,0.341-5.261-1.935-5.94-2.141c-4.302-1.307-7.714,0.386-11.838,1.194c-0.583,0.114-0.697,0.609-0.533,1.03
				c-1.009,0.681-1.891,1.605-2.694,2.547c-1.662,1.95-4.12,7.119-6.762,7.902c-4.508,1.335-0.239-7.519,0.716-9.131
				c1.357-2.288,3.344-3.539,3.605-6.259c0.073-0.76-0.79-1.285-1.454-1.107c-3.066,0.82-6.175,1.496-9.187,2.504
				c-0.209,0.07-5.854,2.722-5.827,2.732c0.049,0.018,5.503-4.599,5.594-4.665c2.609-1.891,4.97-3.509,8.107-4.428
				c0.564-0.165,1.108-0.758,1.055-1.385c-0.353-4.155-5.771-5.402-9.139-6.037c-0.498-0.094-3.553-0.323-3.606-0.648
				C21.698,12.348,26.862,11.822,27.114,11.804z M25.178,91.278c-0.378-1.174-0.487-2.522-0.684-3.643
				c-0.342-1.948-0.572-3.898-0.744-5.858c0.181-0.263,0.394-0.497,0.563-0.779c0.231-0.386,0.36-0.832,0.522-1.248
				c0.252-0.647,0.517-1.287,0.762-1.936c0.209,2.032,0.436,4.059,0.695,6.066c0.339,2.626,0.754,5.219,1.597,7.738
				c0.099,0.294,0.194,0.597,0.302,0.891C27.172,92.133,26.167,91.722,25.178,91.278z M97.585,57.037
				c-1.191,8.882-5.148,16.967-10.457,24.167c-5.675,7.696-15.647,13.071-24.91,15.193c-8.532,1.955-19,0.069-27.461-1.936
				c-0.959-1.431-1.199-3.805-1.683-5.197c-0.647-1.862-1.008-3.811-1.428-5.734c-0.935-4.28-1.79-8.574-2.601-12.879
				c-0.097-0.515-0.874-0.295-0.783,0.216c1.035,5.835,1.877,11.868,3.524,17.568c0.317,1.096,0.838,2.124,1.137,3.225
				c0.231,0.85,0.287,1.711,0.646,2.508c-1.44-0.365-2.87-0.783-4.277-1.265c-0.843-1.541-1.114-3.858-1.37-5.217
				c-0.211-1.119-0.382-2.248-0.537-3.38c0.262,0.254,0.548,0.484,0.833,0.705c0.365,0.283,0.904,0.121,0.926-0.383
				c0.029-0.672-0.41-1.209-0.331-1.868c0.093-0.766-0.808-1.301-1.469-1.119c-0.103,0.028-0.195,0.071-0.28,0.121
				c-0.078-0.688-0.153-1.376-0.225-2.062c-0.521-4.945-1.032-9.973-1.253-14.94c-0.025-0.555-0.881-0.561-0.867,0
				c0.087,3.653,0.337,7.342,0.678,11.017c-0.64-0.407-1.665-0.296-1.953,0.65c-0.01,0.032-0.023,0.063-0.033,0.094
				c-0.255-5.254-0.334-10.497-0.344-15.761c-0.001-0.533-0.827-0.534-0.828,0c-0.011,5.954,0.052,11.893,0.382,17.835
				c-0.104,0.275-0.201,0.551-0.282,0.833c-0.283,0.994-0.012,1.678,0.378,2.586c0.029,0.067,0.083,0.109,0.138,0.148
				c0.198,2.183,0.506,4.342,0.947,6.497c0.144,0.703,0.261,1.475,0.477,2.202c-1.821-0.868-3.579-1.852-5.243-2.977
				c-0.017-1.134,0.048-2.281,0.076-3.415c0.039-1.583,0.118-3.159,0.217-4.733c0.221,0.151,0.556,0.136,0.738-0.062
				c0.91-0.99,0.943-2.028,1.152-3.301c0.197-1.197,0.607-2.387,0.523-3.613c-0.073-1.081-1.245-1.347-1.869-0.701
				c0.14-2.654,0.211-5.314,0.606-7.946c0.417-2.776,0.756-5.561,1.017-8.352c0.041-0.441-0.643-0.436-0.688,0
				c-0.344,3.381-0.947,6.732-1.323,10.114c-0.322,2.899-0.465,5.823-0.674,8.736c-0.399,1.265-0.641,2.609-0.294,3.775
				c-0.225,2.967-0.344,5.958-0.289,8.928c-2.435-1.743-4.661-3.781-6.578-6.165c-0.583-0.725-1.13-1.492-1.655-2.281
				c-0.052-0.536-0.181-1.187-0.158-1.514c0.054-0.733,0.25-1.466,0.369-2.191c0.224-1.368,0.409-2.741,0.615-4.112
				c0.396-2.633,0.959-5.209,1.705-7.765C14.043,58.097,16,53.05,17.47,47.847c0.115-0.407-0.513-0.579-0.633-0.174
				c-1.854,6.241-4.487,12.241-6.03,18.575c-0.731,3.002-1.076,6.075-1.595,9.117c-0.106,0.623-0.215,1.234-0.263,1.829
				c-1.372-2.343-2.501-4.894-3.374-7.542c0.65-2.981,2.382-7.313,2.653-8.19c0.886-2.864,1.612-5.724,2.747-8.514
				c1.604-3.94,3.56-7.722,5.445-11.532c0.175-0.354-0.352-0.667-0.533-0.312c-2.091,4.118-4.291,8.199-6.03,12.483
				c-1.212,2.984-1.934,6.097-2.983,9.131c-0.216,0.625-1.182,3.024-1.788,5.35c-0.536-1.867-0.944-3.766-1.22-5.667
				c0.271-2.798,1.645-5.493,2.803-8.013c1.131-2.461,2.368-4.872,3.61-7.278c2.335-4.522,4.887-8.986,6.633-13.778
				c0.119-0.328-0.399-0.465-0.52-0.143c-2.11,5.602-5.278,10.8-8.004,16.117c-1.078,2.103-2.11,4.225-3.028,6.404
				c-0.628,1.49-1.394,3.066-1.738,4.687c-0.183-1.913-0.235-3.81-0.135-5.653c0.252-4.643,1.131-9.293,2.355-13.862
				c0.015-0.02,0.039-0.03,0.048-0.056c0.423-1.283,1.53-2.776,2.162-3.973c0.888-1.682,2.002-3.23,2.84-4.941
				c1.364-2.785,2.595-6.049,4.362-8.593c0.076-0.11-0.093-0.237-0.184-0.142c-0.93,0.976-1.327,2.268-1.987,3.426
				C12,28.505,11,30.44,9.943,32.356c-0.979,1.775-2.149,3.419-3.035,5.247c-0.087,0.179-0.185,0.355-0.285,0.529
				c1.114-3.735,2.422-7.404,3.775-10.955c1.408-3.694,4.334-6.901,7.078-9.73c0.921-0.949,1.828-2.008,2.744-3.087
				c2.656,1.82,9.484,1.802,11.104,4.249c-3.369,0.909-6.311,3.087-9.045,5.212c-1.008,0.784-3.016,2.185-4.43,3.751
				c-0.12-0.095-0.321-0.114-0.44,0.045c-1.329,1.771-2.23,3.806-3.402,5.679c-1.165,1.862-2.378,3.685-3.418,5.623
				c-1.08,2.012-2.007,4.094-3.019,6.139C6.888,46.44,6.1,47.711,5.896,49.26c-0.039,0.296,0.427,0.337,0.506,0.069
				c0.582-1.959,1.739-3.828,2.621-5.676c0.905-1.896,1.802-3.802,2.831-5.634c0.998-1.777,2.158-3.452,3.186-5.21
				c0.444-0.76,0.848-1.538,1.265-2.308c-0.006,0.091-0.019,0.183-0.014,0.273c0.094,1.802,1.773,2.864,3.528,2.539
				c2.102-0.389,4.532-2.325,6.578-3.071c2.246-0.818,4.514-1.612,6.791-2.364c-0.896,1.386-2.309,2.85-2.891,3.936
				c-0.962,1.798-1.639,3.731-2.229,5.68c-0.659,2.178-1.571,5.634,1.026,7.011c2.787,1.478,5.188-2.258,6.82-3.837
				c2.904-2.81,6.006-5.719,8.499-8.92c3.516,0.056,6.569-0.566,10.338,0.77c1.988,0.705,5.546,2.691,7.582,1.183
				c1.71-1.267,1.017-3.221-0.003-4.699c-1.129-1.635-2.539-2.457-4.116-2.947c1.589-0.66,3.207-1.197,5.099-1.564
				c1.366-0.265,2.722-0.325,3.64-1.436c0.353-0.426,0.422-0.895,0.18-1.394c-1.231-2.541-3.577-3.939-6.295-4.465
				c-3.099-0.6-5.259,0.115-7.749,0.889c1.494-2.872,3.819-5.411,5.366-8.17c0.833-1.485,2.479-3.113,3.602-4.802
				c8.028,1.265,15.276,3.754,21.2,9.636c4.992,4.956,8.355,11.144,11.407,17.386c1.858,3.8,1.762,7.476,2.468,11.554
				C97.941,48.351,98.225,52.27,97.585,57.037z"/>
			<path d="M19.315,53.667c-1.45,4.911-2.598,9.898-3.704,14.896c-0.667,3.014-2.154,7.523-0.126,10.296
				c0.13,0.178,0.401,0.074,0.357-0.151c-0.82-4.234,0.155-8.056,1.05-12.198c0.918-4.248,1.903-8.478,3.1-12.657
				C20.118,53.417,19.443,53.233,19.315,53.667z"/>
			<path d="M44.021,95.127c-1.163,1.095-4.575-4.742-5.079-5.702c-2.477-4.72-3.503-10.154-4.795-15.301
				c-0.16-0.639-1.146-0.368-0.987,0.272c1.447,5.823,2.491,12.155,5.848,17.241c0.596,0.902,3.999,6.109,5.307,3.718
				C44.418,95.167,44.177,94.98,44.021,95.127z"/>
			<path d="M51.013,95.26c-0.159,1.466-1.359-0.333-1.801-0.822c-0.652-0.721-1.242-1.505-1.775-2.318
				c-0.999-1.524-1.664-3.197-2.39-4.86c-0.923-2.116-1.893-4.208-2.745-6.354c-0.737-1.859-2.031-4.137-2.204-6.147
				c-0.049-0.567-0.94-0.572-0.891,0c0.174,2.027,1.3,4.084,2.023,5.977c0.857,2.244,1.843,4.424,2.787,6.631
				c1.516,3.544,3.239,7.679,6.9,9.514c0.211,0.105,0.477-0.022,0.476-0.273c0-0.804,0.011-0.587-0.105-1.386
				C51.264,95.053,51.029,95.116,51.013,95.26z"/>
			<path d="M57.018,95.125c-0.856,1.004-4.822-5.835-4.793-5.773c-0.42-0.887-0.832-1.776-1.245-2.665
				c0.068-0.106,0.128-0.22,0.161-0.372c0.073-0.34,0.07-0.676,0.026-1.019c-0.068-0.526-0.172-1-0.165-1.536
				c0.015-1.15-1.182-1.534-1.986-1.159c-0.608-1.215-1.234-2.421-1.923-3.597c-0.33-0.564-1.205-0.055-0.877,0.513
				c0.77,1.33,1.449,2.711,2.103,4.104c-0.004,0.047-0.013,0.09-0.012,0.14c0.009,0.653,0.075,1.349,0.267,1.976
				c0.092,0.298,0.228,0.602,0.401,0.862c0.081,0.122,0.179,0.264,0.282,0.367c0.1,0.108,0.219,0.184,0.357,0.229
				c0.145,0.073,0.173,0.08,0.085,0.021c0.11,0.091,0.239,0.136,0.37,0.157c1.164,2.45,2.423,4.841,4.133,6.964
				c0.419,0.521,3.707,3.427,3.137,0.872C57.308,95.075,57.111,95.016,57.018,95.125z"/>
			<path d="M62.435,94.76c0,0.035-1.127-1.111-1.261-1.322c-0.248-0.392-0.476-0.797-0.723-1.19
				c-0.77-1.221-1.562-2.426-2.306-3.663c-0.47-0.78-0.916-1.571-1.348-2.368c0.46-0.077,0.872-0.444,0.841-0.957
				c-0.033-0.563-0.2-1.021-0.722-1.303c-0.382-0.206-0.834-0.291-1.263-0.252c-0.039,0.004-0.074,0.019-0.112,0.026
				c-0.481-1.022-0.937-2.057-1.334-3.124c-0.256-0.686-1.365-0.391-1.107,0.305c0.456,1.235,0.986,2.431,1.548,3.611
				c-0.008,0.034-0.026,0.061-0.03,0.097c-0.051,0.425,0.181,0.907,0.593,1.085c0.794,1.56,1.666,3.082,2.591,4.58
				c1.106,1.791,2.349,5.25,4.674,5.678c0.258,0.047,0.488-0.108,0.499-0.38c0.021-0.504,0.032-0.381-0.11-0.881
				C62.798,94.466,62.434,94.51,62.435,94.76z"/>
			<path d="M66.868,91.701c-0.027-0.196-0.321-0.207-0.407-0.053c-0.384,0.684-3.842-4.374-4.102-4.749
				c-1.485-2.145-2.872-4.284-3.72-6.773c-0.208-0.61-1.179-0.35-0.972,0.268c1.12,3.35,3.193,6.09,5.122,9.004
				c0.876,1.323,2,3.52,3.877,3.173c0.214-0.04,0.284-0.272,0.259-0.456C66.906,91.977,66.887,91.839,66.868,91.701z"/>
			<path d="M70.99,90.26c-0.004,0.33-1.312-0.585-1.43-0.699c-0.276-0.265-0.504-0.697-0.725-1.007
				c-0.671-0.941-1.334-1.891-1.954-2.867c-1.172-1.846-2.191-3.803-3.481-5.571c-0.213-0.292-0.67-0.042-0.492,0.288
				c1.85,3.444,3.728,7.171,6.177,10.236c0.833,1.042,2.878,1.531,2.228-0.423C71.254,90.044,70.992,90.069,70.99,90.26z"/>
			<path d="M72.098,86.557c-0.477,0.196-1.178-3.136-1.37-3.647c-0.628-1.672-1.336-3.308-2.136-4.906
				c-0.293-0.585-1.168-0.071-0.877,0.513c1.016,2.034,2.057,4.198,2.604,6.412c0.229,0.926,0.237,2.226,1.356,2.465
				c0.164,0.035,0.292-0.028,0.388-0.158c0.091-0.123,0.181-0.246,0.272-0.369C72.44,86.725,72.264,86.488,72.098,86.557z"/>
			<path d="M74.153,81.468c-0.391-0.631-1.388-0.054-0.998,0.584c0.734,1.202,1.123,2.516,1.618,3.822
				c0.398,1.05,0.912,1.759,1.724,2.543c0.134,0.13,0.387,0.04,0.38-0.157c-0.038-1.149-0.804-2.244-1.188-3.307
				C75.252,83.745,74.832,82.565,74.153,81.468z"/>
		</g>
	</g>
</g>
<g>
</g>
<g>
</g>
<g>
</g>
<g>
</g>
<g>
</g>
<g>
</g>
<g>
</g>
<g>
</g>
<g>
</g>
<g>
</g>
<g>
</g>
<g>
</g>
<g>
</g>
<g>
</g>
<g>
</g>
</svg>
